<svg width="42" height="43" viewBox="0 0 42 43" fill="none" xmlns="http://www.w3.org/2000/svg">
<rect y="0.890625" width="42" height="42" rx="12" fill="#F5F5FA"/>
<g clip-path="url(#clip0_22724_9606)">
<path d="M31.6755 9.89062H10.3245C9.5925 9.89062 9 10.4831 9 11.2151V32.5661C9 33.2981 9.5925 33.8906 10.3245 33.8906H21.819V24.5966H18.69V20.9756H21.819V18.3011C21.819 15.2021 23.712 13.5161 26.478 13.5161C27.8025 13.5161 28.941 13.6121 29.2725 13.6571V16.8971H27.3525C25.8525 16.8971 25.56 17.6171 25.56 18.6671V20.9771H29.145L28.68 24.6071H25.56V33.8906H31.6755C32.4075 33.8906 33 33.2981 33 32.5661V11.2151C33 10.4831 32.4075 9.89062 31.6755 9.89062Z" fill="#435695"/>
</g>
<defs>
<clipPath id="clip0_22724_9606">
<rect width="24" height="24" fill="white" transform="translate(9 9.89062)"/>
</clipPath>
</defs>
</svg>
