<svg width="42" height="43" viewBox="0 0 42 43" fill="none" xmlns="http://www.w3.org/2000/svg">
<rect y="0.890625" width="42" height="42" rx="12" fill="#F5F5FA"/>
<g clip-path="url(#clip0_22724_9610)">
<path d="M12.6 18.8906H16.2V30.2906H12.6V18.8906ZM14.4 13.1906C15.6 13.1906 16.5 14.0906 16.5 15.2906C16.35 16.3406 15.45 17.3906 14.4 17.3906C13.2 17.3906 12.3 16.3406 12.3 15.2906C12.3 14.0906 13.2 13.1906 14.4 13.1906ZM18.3 18.8906H21.75V20.3906C22.5 19.1906 23.85 18.5906 25.2 18.5906C28.8 18.5906 29.4 20.9906 29.4 23.9906V30.2906H25.8V24.7406C25.8 23.3906 25.8 21.7406 24 21.7406C22.2 21.7406 21.9 23.2406 21.9 24.7406V30.4406H18.3V18.8906ZM28.5 9.89062H13.5C10.5 9.89062 9 11.3906 9 14.3906V29.3906C9 32.3906 10.5 33.8906 13.5 33.8906H28.5C31.5 33.8906 33 32.3906 33 29.3906V14.3906C33 11.3906 31.5 9.89062 28.5 9.89062Z" fill="#1178B3"/>
</g>
<defs>
<clipPath id="clip0_22724_9610">
<rect width="24" height="24" fill="white" transform="translate(9 9.89062)"/>
</clipPath>
</defs>
</svg>
